# Blender 4.0.2
# www.blender.org
mtllib ThreeDoors.mtl
o Cube.004
v -2.500000 2.000000 -23.550304
v -2.500000 0.000000 -23.550304
v -2.500000 2.000000 -23.050304
v -2.500000 0.000000 -23.050304
v -4.000000 2.000000 -23.550304
v -4.000000 0.000000 -23.550304
v -4.000000 2.000000 -23.050304
v -4.000000 0.000000 -23.050304
v -2.500000 4.000000 -23.050304
v -4.000000 4.000000 -23.050304
v -2.500000 4.000000 -23.550304
v -4.000000 4.000000 -23.550304
v -1.500000 2.000000 -23.550304
v -1.500000 2.000000 -23.050304
v -1.500000 4.000000 -23.550304
v -1.500000 4.000000 -23.050304
v -0.500000 2.000000 -23.550304
v -0.500000 2.000000 -23.050304
v -0.500000 4.000000 -23.550304
v -0.500000 4.000000 -23.050304
v 0.500000 2.000000 -23.550304
v 0.500000 2.000000 -23.050304
v 0.500000 4.000000 -23.550304
v 0.500000 4.000000 -23.050304
v 1.500000 2.000000 -23.550304
v 1.500000 2.000000 -23.050304
v 1.500000 4.000000 -23.550304
v 1.500000 4.000000 -23.050304
v -1.500000 0.000000 -23.550304
v -1.500000 0.000000 -23.050304
v -0.500000 0.000000 -23.550304
v -0.500000 0.000000 -23.050304
v 0.500000 0.000000 -23.550304
v 0.500000 0.000000 -23.050304
v 1.500000 0.000000 -23.550304
v 1.500000 0.000000 -23.050304
v 2.500000 2.000000 -23.550304
v 2.500000 2.000000 -23.050304
v 2.500000 4.000000 -23.550304
v 2.500000 4.000000 -23.050304
v 4.000000 2.000000 -23.550304
v 4.000000 2.000000 -23.050304
v 4.000000 4.000000 -23.550304
v 4.000000 4.000000 -23.050304
v 2.500000 0.000000 -23.550304
v 2.500000 0.000000 -23.050304
v 4.000000 0.000000 -23.550304
v 4.000000 0.000000 -23.050304
vn -0.0000 -0.0000 1.0000
vn -1.0000 -0.0000 -0.0000
vn -0.0000 -1.0000 -0.0000
vn 1.0000 -0.0000 -0.0000
vn -0.0000 -0.0000 -1.0000
vn -0.0000 1.0000 -0.0000
vt 0.625000 1.000000
vt 0.625000 0.750000
vt 0.375000 0.750000
vt 0.375000 1.000000
vt 0.375000 0.000000
vt 0.625000 0.000000
vt 0.625000 0.250000
vt 0.375000 0.250000
vt 0.125000 0.500000
vt 0.375000 0.500000
vt 0.125000 0.750000
vt 0.625000 0.500000
vt 0.875000 0.500000
vt 0.875000 0.750000
s 0
usemtl Material
f 7/1/1 3/2/1 9/2/1 10/1/1
f 4/3/1 3/2/1 7/1/1 8/4/1
f 8/5/2 7/6/2 5/7/2 6/8/2
f 6/9/3 2/10/3 4/3/3 8/11/3
f 2/10/4 1/12/4 3/2/4 4/3/4
f 6/8/5 5/7/5 1/12/5 2/10/5
f 11/12/6 12/13/6 10/14/6 9/2/6
f 5/7/2 7/6/2 10/6/2 12/7/2
f 11/12/6 9/2/6 16/2/6 15/12/6
f 1/12/5 5/7/5 12/7/5 11/12/5
f 16/2/1 14/2/1 18/2/1 20/2/1
f 3/2/3 1/12/3 13/12/3 14/2/3
f 9/2/1 3/2/1 14/2/1 16/2/1
f 1/12/5 11/12/5 15/12/5 13/12/5
f 18/2/3 17/12/3 21/12/3 22/2/3
f 17/12/4 18/2/4 32/2/4 31/12/4
f 13/12/5 15/12/5 19/12/5 17/12/5
f 15/12/6 16/2/6 20/2/6 19/12/6
f 21/12/5 23/12/5 27/12/5 25/12/5
f 17/12/5 19/12/5 23/12/5 21/12/5
f 19/12/6 20/2/6 24/2/6 23/12/6
f 20/2/1 18/2/1 22/2/1 24/2/1
f 28/2/1 26/2/1 38/2/1 40/2/1
f 23/12/6 24/2/6 28/2/6 27/12/6
f 24/2/1 22/2/1 26/2/1 28/2/1
f 25/12/4 26/2/4 36/2/4 35/12/4
f 30/2/3 29/12/3 31/12/3 32/2/3
f 14/2/2 13/12/2 29/12/2 30/2/2
f 13/12/5 17/12/5 31/12/5 29/12/5
f 18/2/1 14/2/1 30/2/1 32/2/1
f 34/2/3 33/12/3 35/12/3 36/2/3
f 26/2/1 22/2/1 34/2/1 36/2/1
f 21/12/5 25/12/5 35/12/5 33/12/5
f 22/2/2 21/12/2 33/12/2 34/2/2
f 40/2/1 38/2/1 42/2/1 44/2/1
f 26/2/3 25/12/3 37/12/3 38/2/3
f 25/12/5 27/12/5 39/12/5 37/12/5
f 27/12/6 28/2/6 40/2/6 39/12/6
f 42/2/4 41/12/4 43/12/4 44/2/4
f 38/2/2 37/12/2 45/12/2 46/2/2
f 37/12/5 39/12/5 43/12/5 41/12/5
f 39/12/6 40/2/6 44/2/6 43/12/6
f 46/2/3 45/12/3 47/12/3 48/2/3
f 37/12/5 41/12/5 47/12/5 45/12/5
f 42/2/1 38/2/1 46/2/1 48/2/1
f 41/12/4 42/2/4 48/2/4 47/12/4
o Plane.001
v -4.000000 0.000000 -13.300304
v 4.000000 0.000000 -13.300304
v -4.000000 0.000000 -33.300304
v 4.000000 0.000000 -33.300304
vn -0.0000 1.0000 -0.0000
vt 0.000000 0.000000
vt 1.000000 0.000000
vt 1.000000 1.000000
vt 0.000000 1.000000
s 0
f 49/15/7 50/16/7 52/17/7 51/18/7
